<svg xmlns="http://www.w3.org/2000/svg" width="512" height="512" viewBox="0 0 512 512">
  <style type="text/css">
    .st0{fill:#C0E1FF;}
    .st1{fill:#566F25;}
    .st2{fill:#3E4716;}
  </style>
  <path class="st0" d="M256,512L256,512C114.6,512,0,397.4,0,256v0C0,114.6,114.6,0,256,0h0c141.4,0,256,114.6,256,256v0	C512,397.4,397.4,512,256,512z"/>
  <path class="st1" d="M450.7,422.2H61.3c47,54.9,116.8,89.8,194.7,89.8h0C333.9,512,403.7,477.2,450.7,422.2z"/>
  <path class="st2"
        d="M414.1,209.9c-1.3-0.2-2.8,0.1-4.3,0.4c0.4-10.3-12.1-10.9-18.3-15.6c-6.4-12.7-19.4-18.3-32.5-22.5	c-28.9-32.5-60.2-40.7-98.6-43.9c-30.6-8.3-17.4-2.8-35.3-1.7c-16.2,0.6-31.7,2.4-45.1,11.3c-4.4,0.4-8.9,2.4-11.8,6.1	c-3,3.4-1.3,7.1-5.7,10c-11.4,10.3-18.7,20.4-23.2,34.8c-0.6,4.6-3.7,5.2-7.4,8c-3.9,3.9-7.7,13-7.2,17.2c-2.1,2-3,5.7-4.7,8.4	c-3.8,2.1-9.3,5.3-6.8,10.2c-0.3,1.8-1.9,0.4-2.9,0.8c-3.1,3.1-4.7,7.5-9.3,8.6c-7.5-0.7-4.8,2.3-6.3,5.3c-4.4,2-3,8.9-5.4,14	c14.1,2,6.2,5.2,11.4,12.3c2.1,2.3,3.9,0.4,6,2.1c3.8,3.7,3,8.8,6.1,13.5c1.9,1.5,0.8,3,1.5,5.6c3.1,5.9,9.9,7,11.3,14.2	c4.5,12.6,10.1,21.8,22.1,26.9c13.9,4.7,28.9,7.2,42.7,2.7c7-2.5,26.6-10.6,30-10.1c9.2,1.4,25.7,20.3,25.7,40.9	c-0.7,20.4-0.7,36-1.6,54.4c12.9,1.4,19.3,2,29.3,0.8c-4.3-58.4-8.2-79,4.4-93.1c7.6-8.5,20.4-11.9,39.4-5.3	c10.5,0.7,19.7,3.2,29.8,1.7c4.7-2.1,8.2-2.2,13.7-1.4c10.3,3.2,25,2.4,34-4c1.5-0.5,3-0.4,5.1,0.4c1-1.1,2.7-2.8,4.2-4.4	c5.6-5.1-2.1-12.9-0.3-19.7c0.8-4.3-0.2-5.4-0.5-10c3.6-2.5,2.8-18.4,2.9-22.6c-0.1,0-0.1,0.1-0.2,0.1c-10.6-13.9-2.7-17.3-2.5-28.1	c8.4-1.7,4-2.5,0.8-10.8c4.6-12-0.7-9.2,8.6-11.5C415.1,215.1,413.9,212.1,414.1,209.9z M268.4,170.6c-0.3-0.2-0.5-0.4-0.8-0.6	c0.3,0.2,0.6,0.4,0.9,0.6C268.5,170.5,268.4,170.6,268.4,170.6z"/>
  <path class="st1"
        d="M426.9,212.2c-6.3-10-11.2-25.1-20.1-36.1c-20-13.8-35.4-26-56.5-43.1c-16.2-13.7-11.9-29.8-26.9-36.4	c-20.7-8.1-23.5,19.1-52.3-4.1c-48.1-3.4-21.2-9.5-62.7-0.3c-9.6,2.7-9.4-12.1-31,9.1c-10.4,2.2-0.4,12.8-25.7,20.7	c-5.4,5.8-8,14.5-19.9,18.7c-8.6,17.2-1.6,10.2-21.9,27.7c-3.2,11.1,0.7,28.7-14.3,35.3c-28.2,7.3-11.6,23-11.7,35.5	c-5.5,7.3-6.3,13.2-7.3,22.2c-0.1,4.8,11.5,16.1,18.9,36.5c7.3,7.1,16.8,10.9,15.4,23.4c-4.3,3.9-5.5,13.7,1.5,17.8	c9.3,5.8,23.5-1.3,35.8,1.1c22.2,8.6,37.4,9.1,56.5-7.2c-6.4-1.9-18,0.3-24.2-4.3c-9.9-16.7-30.3,6-26.6-14.5	c-3.2-6.2,2.5-14.7-4.2-20.6c-15.9-12.5-26.2,7.5-30.9-9.6c2.7-1.4,7.7-3.5,6.7-8.8c0.2,0,0.5-0.1,0.7-0.2c-0.1-0.2-0.2-0.3-0.5-1.4	c-9.6-3.1-19.9-6.8-28.4-14.6c0.9-1.5,1.2-3.5,1.4-5.1c4.5-10.1,18.2-6.7,35-21.5c10.1-5.2,9.9-15.3,20.4-20.8	c3.8-6.1,20.2-13.4,10.6-22.7c0,0,0,0,0.1,0c-5-17.2-10.8-15.2,8-22.3c0,0,0,0,0,0c3.8-8.9-8.1-24.8,8-25.7c0,0,0,0.1,0,0.1	c1.1,0.1,3.1,0.4,5.2,3.5c18.6,10.3-7.5,19.3,9.2,31.4c0,0,0,0,0,0c6.7,10.4,15.6,11.3,30.3,8.9c3.7-5.6,12.3,1.2,18.5-2.5	c46.6-37,79.4,16.3,102,7.3c5.4,3.5,4.4-16.9,19.9-4.5c0,3.8,0.7,6-3.3,9.8c-31.5,30.2,33.4-8.6,38.7,21.6c-24,19-7,0.9-16.9,34.1	c-0.3,4-0.9,12,5.8,15.6c-0.2,0.1-0.4,0.3-0.6,0.4c2.3,0.9,8.4,0,8,8.4c-3.4,1.9-7.1,5.5-10.7,11.9c0.2,0,0.3,0,0.5,0	c7.5,38.5,27.9,24.4-65.6,39.6c7.1,3.7,13.7,8.1,24.2,3.6c-0.2-0.2-0.5-0.4-0.7-0.5c0.1-0.1,0.2-0.1,0.3-0.2	c88.5,23.1,60.4,0.9,74.2-51.2c4.4-9.9-0.9-22.1-1.3-33.1c1.5-2.2,2.4-4.6,2.6-9.1C423.7,231,428.1,221.6,426.9,212.2z"/>
</svg>
