<svg xmlns="http://www.w3.org/2000/svg" width="512" height="512" viewBox="0 0 512 512">
  <style type="text/css">
    .st0{fill:#FFFFFF;}
    .st1{fill:#AF0711;}
  </style>
  <path d="M410.9,512H101.1C45.2,512,0,466.8,0,410.9V101.1C0,45.2,45.2,0,101.1,0h309.9C466.8,0,512,45.2,512,101.1v309.9	C512,466.8,466.8,512,410.9,512z"/>
  <g>
    <path class="st0" d="M429.2,231.1h-51.7H234.4V276h143.9c-9.6,59-60.7,103.9-122.3,103.9C187.6,380,132,324.4,132,256		s55.5-124,124-124c42.3,0,79.6,21.2,102,53.6h58.2C389.2,124,327.6,81,256,81c-96.7,0-175,78.3-175,175s78.3,175,175,175		s175-78.3,175-175C431,247.5,430.4,239.3,429.2,231.1z"/>
    <rect x="81" y="192.4" class="st1" width="179" height="238.5"/>
  </g>
</svg>
